# MagicaVoxel @ Ephtracy

# group
o 

# material
mtllib untitled2.vox.mtl
usemtl palette

# normals
vn -1 0 0
vn 1 0 0
vn 0 0 1
vn 0 0 -1
vn 0 -1 0
vn 0 1 0

# texcoords
vt 0.0292969 0.5
vt 0.958984 0.5
vt 0.962891 0.5
vt 0.966797 0.5
vt 0.990234 0.5

# verts
v -1.2 -0.1 0.2
v -1.2 -0.1 -5.96046e-08
v -1.2 0.1 0.2
v -1.2 0.1 -5.96046e-08
v -1 0.3 0.6
v -1 0.3 -0.6
v -1 1.3 0.6
v -1 1.3 -0.6
v -1 1.5 0.2
v -1 1.5 -5.96046e-08
v -1 1.9 0.4
v -1 1.9 0.2
v -1 2.5 0.4
v -1 2.5 -5.96046e-08
v -0.8 0.3 0.8
v -0.8 0.3 0.6
v -0.8 1.3 0.6
v -0.8 1.3 -0.4
v -0.8 1.5 0.8
v -0.8 1.5 0.2
v -0.8 1.5 -5.96046e-08
v -0.8 1.5 -0.2
v -0.8 1.5 -0.4
v -0.8 1.9 -5.96046e-08
v -0.8 1.9 -0.2
v -0.6 1.5 0.6
v -0.6 1.5 0.2
v -0.6 1.5 -0.2
v -0.6 1.5 -0.4
v -0.6 1.7 0.2
v -0.6 1.9 0.6
v -0.6 1.9 0.4
v -0.6 1.9 0.2
v -0.6 1.9 -0.2
v -0.6 1.9 -0.4
v -0.4 -1.5 0.2
v -0.4 -1.5 -5.96046e-08
v -0.4 -0.8 0.3
v -0.4 -0.8 0.2
v -0.4 -0.8 -5.96046e-08
v -0.4 -0.8 -0.2
v -0.4 -0.7 0.3
v -0.4 -0.7 0.2
v -0.4 -0.7 -5.96046e-08
v -0.4 -0.7 -0.2
v -0.4 -0.6 0.3
v -0.4 -0.6 0.2
v -0.4 -0.6 -5.96046e-08
v -0.4 -0.6 -0.2
v -0.4 -0.5 0.2
v -0.4 -0.5 -5.96046e-08
v -0.4 -0.1 0.2
v -0.4 -0.1 -5.96046e-08
v -0.4 0.1 0.3
v -0.4 0.1 0.2
v -0.4 0.1 -5.96046e-08
v -0.4 0.1 -0.2
v -0.3 -0.9 0.3
v -0.3 -0.9 0.2
v -0.3 -0.9 -5.96046e-08
v -0.3 -0.9 -0.2
v -0.3 -0.8 0.3
v -0.3 -0.8 0.2
v -0.3 -0.8 -5.96046e-08
v -0.3 -0.8 -0.2
v -0.2 0.1 0.2
v -0.2 0.1 -0.1
v -0.2 0.3 0.2
v -0.2 0.3 -0.1
v -0.2 1.1 0.8
v -0.2 1.1 0.6
v -0.2 1.3 0.8
v -0.2 1.3 0.6
v 0.2 -1.5 0.2
v 0.2 -1.5 -5.96046e-08
v 0.2 -0.9 0.2
v 0.2 -0.9 -5.96046e-08
v 0.2 -0.8 0.2
v 0.2 -0.7 0.2
v 0.2 -0.7 -5.96046e-08
v 0.2 -0.5 0.2
v 0.2 -0.5 -5.96046e-08
v 0.4 1.1 0.8
v 0.4 1.1 0.6
v 0.4 1.3 0.8
v 0.4 1.3 0.6
v 0.4 1.9 0.4
v 0.4 1.9 -5.96046e-08
v 0.4 2.1 0.4
v 0.4 2.1 -5.96046e-08
v 0.6 0.3 0.8
v 0.6 0.3 0.6
v 0.6 0.7 0.6
v 0.6 0.8 0.6
v 0.6 1.1 0.8
v 0.6 1.1 0.6
v 0.6 2.1 0.4
v 0.6 2.1 -5.96046e-08
v 0.6 2.3 0.4
v 0.6 2.3 -5.96046e-08
v 0.8 2.3 0.4
v 0.8 2.3 -5.96046e-08
v 0.8 2.5 0.4
v 0.8 2.5 -5.96046e-08
v -0.8 2.3 0.4
v -0.8 2.3 -5.96046e-08
v -0.8 2.5 0.4
v -0.8 2.5 -5.96046e-08
v -0.6 0.3 0.8
v -0.6 0.3 0.6
v -0.6 0.7 0.6
v -0.6 0.8 0.6
v -0.6 1.1 0.8
v -0.6 1.1 0.6
v -0.6 2.1 0.4
v -0.6 2.1 -5.96046e-08
v -0.6 2.3 0.4
v -0.6 2.3 -5.96046e-08
v -0.4 1.1 0.8
v -0.4 1.1 0.6
v -0.4 1.3 0.8
v -0.4 1.3 0.6
v -0.4 1.9 0.4
v -0.4 1.9 -5.96046e-08
v -0.4 2.1 0.4
v -0.4 2.1 -5.96046e-08
v -0.2 -1.5 0.2
v -0.2 -1.5 -5.96046e-08
v -0.2 -0.9 0.2
v -0.2 -0.9 -5.96046e-08
v -0.2 -0.8 0.2
v -0.2 -0.7 0.2
v -0.2 -0.7 -5.96046e-08
v -0.2 -0.5 0.2
v -0.2 -0.5 -5.96046e-08
v 0.2 0.1 0.2
v 0.2 0.1 -0.1
v 0.2 0.3 0.2
v 0.2 0.3 -0.1
v 0.2 1.1 0.8
v 0.2 1.1 0.6
v 0.2 1.3 0.8
v 0.2 1.3 0.6
v 0.3 -0.9 0.3
v 0.3 -0.9 0.2
v 0.3 -0.9 -5.96046e-08
v 0.3 -0.9 -0.2
v 0.3 -0.8 0.3
v 0.3 -0.8 0.2
v 0.3 -0.8 -5.96046e-08
v 0.3 -0.8 -0.2
v 0.4 -1.5 0.2
v 0.4 -1.5 -5.96046e-08
v 0.4 -0.8 0.3
v 0.4 -0.8 0.2
v 0.4 -0.8 -5.96046e-08
v 0.4 -0.8 -0.2
v 0.4 -0.7 0.3
v 0.4 -0.7 0.2
v 0.4 -0.7 -5.96046e-08
v 0.4 -0.7 -0.2
v 0.4 -0.6 0.3
v 0.4 -0.6 0.2
v 0.4 -0.6 -5.96046e-08
v 0.4 -0.6 -0.2
v 0.4 -0.5 0.2
v 0.4 -0.5 -5.96046e-08
v 0.4 -0.1 0.2
v 0.4 -0.1 -5.96046e-08
v 0.4 0.1 0.3
v 0.4 0.1 0.2
v 0.4 0.1 -5.96046e-08
v 0.4 0.1 -0.2
v 0.6 1.5 0.6
v 0.6 1.5 0.2
v 0.6 1.5 -0.2
v 0.6 1.5 -0.4
v 0.6 1.7 0.2
v 0.6 1.9 0.6
v 0.6 1.9 0.4
v 0.6 1.9 0.2
v 0.6 1.9 -0.2
v 0.6 1.9 -0.4
v 0.8 0.3 0.8
v 0.8 0.3 0.6
v 0.8 1.3 0.6
v 0.8 1.3 -0.4
v 0.8 1.5 0.8
v 0.8 1.5 0.2
v 0.8 1.5 -5.96046e-08
v 0.8 1.5 -0.2
v 0.8 1.5 -0.4
v 0.8 1.9 -5.96046e-08
v 0.8 1.9 -0.2
v 1 0.3 0.6
v 1 0.3 -0.6
v 1 1.3 0.6
v 1 1.3 -0.6
v 1 1.5 0.2
v 1 1.5 -5.96046e-08
v 1 1.9 0.4
v 1 1.9 0.2
v 1 1.9 -5.96046e-08
v 1 2.1 0.2
v 1 2.1 -5.96046e-08
v 1 2.5 0.4
v 1 2.5 -5.96046e-08
v 1.2 -0.1 0.2
v 1.2 -0.1 -5.96046e-08
v 1.2 0.1 0.2
v 1.2 0.1 -5.96046e-08
v -0.8 0.3 0.8
v -0.8 1.5 0.8
v -0.6 0.3 0.8
v -0.6 1.1 0.8
v -0.4 1.1 0.8
v -0.4 1.3 0.8
v -0.2 1.1 0.8
v -0.2 1.3 0.8
v 0.2 1.1 0.8
v 0.2 1.3 0.8
v 0.4 1.1 0.8
v 0.4 1.3 0.8
v 0.6 0.3 0.8
v 0.6 1.1 0.8
v 0.8 0.3 0.8
v 0.8 1.5 0.8
v -1 0.3 0.6
v -1 1.3 0.6
v -0.8 0.3 0.6
v -0.8 1.3 0.6
v -0.6 0.3 0.6
v -0.6 0.7 0.6
v -0.6 0.8 0.6
v -0.6 1.1 0.6
v -0.6 1.5 0.6
v -0.6 1.9 0.6
v -0.4 1.1 0.6
v -0.4 1.3 0.6
v -0.2 0.7 0.6
v -0.2 0.8 0.6
v -0.2 1.1 0.6
v -0.2 1.3 0.6
v 0.2 0.7 0.6
v 0.2 0.8 0.6
v 0.2 1.1 0.6
v 0.2 1.3 0.6
v 0.4 1.1 0.6
v 0.4 1.3 0.6
v 0.6 0.3 0.6
v 0.6 0.7 0.6
v 0.6 0.8 0.6
v 0.6 1.1 0.6
v 0.6 1.5 0.6
v 0.6 1.9 0.6
v 0.8 0.3 0.6
v 0.8 1.3 0.6
v 1 0.3 0.6
v 1 1.3 0.6
v -1 1.9 0.4
v -1 2.5 0.4
v -0.8 2.3 0.4
v -0.8 2.5 0.4
v -0.6 1.9 0.4
v -0.6 2.1 0.4
v -0.6 2.3 0.4
v -0.4 1.9 0.4
v -0.4 2.1 0.4
v 0.4 1.9 0.4
v 0.4 2.1 0.4
v 0.6 1.9 0.4
v 0.6 2.1 0.4
v 0.6 2.3 0.4
v 0.8 2.3 0.4
v 0.8 2.5 0.4
v 1 1.9 0.4
v 1 2.5 0.4
v -0.4 -0.8 0.3
v -0.4 -0.7 0.3
v -0.4 -0.6 0.3
v -0.4 0.1 0.3
v -0.3 -0.9 0.3
v -0.3 -0.8 0.3
v -0.3 -0.7 0.3
v -0.3 -0.6 0.3
v 0.2 -0.4 0.3
v 0.2 -0.2 0.3
v 0.2 0 0.3
v 0.2 0.1 0.3
v 0.3 -0.9 0.3
v 0.3 -0.8 0.3
v 0.3 -0.7 0.3
v 0.3 -0.6 0.3
v 0.3 -0.4 0.3
v 0.3 -0.2 0.3
v 0.3 0 0.3
v 0.3 0.1 0.3
v 0.4 -0.8 0.3
v 0.4 -0.7 0.3
v 0.4 -0.6 0.3
v 0.4 0.1 0.3
v -1.2 -0.1 0.2
v -1.2 0.1 0.2
v -1 1.5 0.2
v -1 1.9 0.2
v -0.8 1.5 0.2
v -0.8 1.7 0.2
v -0.8 1.9 0.2
v -0.6 1.5 0.2
v -0.6 1.7 0.2
v -0.6 1.9 0.2
v -0.4 -1.5 0.2
v -0.4 -0.8 0.2
v -0.4 -0.1 0.2
v -0.4 0.1 0.2
v -0.3 -0.9 0.2
v -0.3 -0.8 0.2
v -0.2 -1.5 0.2
v -0.2 -0.9 0.2
v -0.2 0.1 0.2
v -0.2 0.3 0.2
v 0.2 -1.5 0.2
v 0.2 -0.9 0.2
v 0.2 0.1 0.2
v 0.2 0.3 0.2
v 0.3 -0.9 0.2
v 0.3 -0.8 0.2
v 0.4 -1.5 0.2
v 0.4 -0.8 0.2
v 0.4 -0.1 0.2
v 0.4 0.1 0.2
v 0.6 1.5 0.2
v 0.6 1.7 0.2
v 0.6 1.9 0.2
v 0.8 1.5 0.2
v 0.8 1.7 0.2
v 0.8 1.9 0.2
v 1 1.5 0.2
v 1 1.9 0.2
v 1.2 -0.1 0.2
v 1.2 0.1 0.2
v -0.2 -0.9 -5.96046e-08
v -0.2 -0.7 -5.96046e-08
v -0.2 -0.5 -5.96046e-08
v 1.19209e-07 -0.7 -5.96046e-08
v 1.19209e-07 -0.5 -5.96046e-08
v 0.2 -0.9 -5.96046e-08
v 0.2 -0.7 -5.96046e-08
v 0.2 -0.5 -5.96046e-08
v -0.2 -0.9 0.2
v -0.2 -0.8 0.2
v -0.2 -0.7 0.2
v -0.2 -0.5 0.2
v 0.2 -0.9 0.2
v 0.2 -0.8 0.2
v 0.2 -0.7 0.2
v 0.2 -0.5 0.2
v -1.2 -0.1 -5.96046e-08
v -1.2 0.1 -5.96046e-08
v -1 1.5 -5.96046e-08
v -1 2.5 -5.96046e-08
v -0.8 1.5 -5.96046e-08
v -0.8 1.9 -5.96046e-08
v -0.8 2.1 -5.96046e-08
v -0.8 2.3 -5.96046e-08
v -0.8 2.5 -5.96046e-08
v -0.6 1.9 -5.96046e-08
v -0.6 2.1 -5.96046e-08
v -0.6 2.3 -5.96046e-08
v -0.4 -1.5 -5.96046e-08
v -0.4 -0.8 -5.96046e-08
v -0.4 -0.1 -5.96046e-08
v -0.4 0.1 -5.96046e-08
v -0.4 1.9 -5.96046e-08
v -0.4 2.1 -5.96046e-08
v -0.3 -0.9 -5.96046e-08
v -0.3 -0.8 -5.96046e-08
v -0.2 -1.5 -5.96046e-08
v -0.2 -0.9 -5.96046e-08
v 0.2 -1.5 -5.96046e-08
v 0.2 -0.9 -5.96046e-08
v 0.3 -0.9 -5.96046e-08
v 0.3 -0.8 -5.96046e-08
v 0.4 -1.5 -5.96046e-08
v 0.4 -0.8 -5.96046e-08
v 0.4 -0.1 -5.96046e-08
v 0.4 0.1 -5.96046e-08
v 0.4 1.9 -5.96046e-08
v 0.4 2.1 -5.96046e-08
v 0.6 1.9 -5.96046e-08
v 0.6 2.1 -5.96046e-08
v 0.6 2.3 -5.96046e-08
v 0.8 1.5 -5.96046e-08
v 0.8 1.9 -5.96046e-08
v 0.8 2.3 -5.96046e-08
v 0.8 2.5 -5.96046e-08
v 1 1.5 -5.96046e-08
v 1 1.9 -5.96046e-08
v 1 2.1 -5.96046e-08
v 1 2.5 -5.96046e-08
v 1.2 -0.1 -5.96046e-08
v 1.2 0.1 -5.96046e-08
v -0.2 0.1 -0.1
v -0.2 0.3 -0.1
v 0.2 0.1 -0.1
v 0.2 0.3 -0.1
v -0.8 1.5 -0.2
v -0.8 1.9 -0.2
v -0.6 1.5 -0.2
v -0.6 1.9 -0.2
v -0.4 -0.8 -0.2
v -0.4 -0.7 -0.2
v -0.4 -0.6 -0.2
v -0.4 0.1 -0.2
v -0.3 -0.9 -0.2
v -0.3 -0.8 -0.2
v -0.3 -0.7 -0.2
v -0.3 -0.6 -0.2
v 0.3 -0.9 -0.2
v 0.3 -0.8 -0.2
v 0.3 -0.7 -0.2
v 0.3 -0.6 -0.2
v 0.4 -0.8 -0.2
v 0.4 -0.7 -0.2
v 0.4 -0.6 -0.2
v 0.4 0.1 -0.2
v 0.6 1.5 -0.2
v 0.6 1.9 -0.2
v 0.8 1.5 -0.2
v 0.8 1.9 -0.2
v -0.8 1.3 -0.4
v -0.8 1.5 -0.4
v -0.6 1.5 -0.4
v -0.6 1.9 -0.4
v 0.6 1.5 -0.4
v 0.6 1.9 -0.4
v 0.8 1.3 -0.4
v 0.8 1.5 -0.4
v -1 0.3 -0.6
v -1 1.3 -0.6
v 1 0.3 -0.6
v 1 1.3 -0.6
v -0.4 -1.5 0.2
v -0.2 -1.5 0.2
v 0.2 -1.5 0.2
v 0.4 -1.5 0.2
v -0.4 -1.5 -5.96046e-08
v -0.2 -1.5 -5.96046e-08
v 0.2 -1.5 -5.96046e-08
v 0.4 -1.5 -5.96046e-08
v -0.3 -0.9 0.3
v 0.3 -0.9 0.3
v -0.3 -0.9 0.2
v -0.2 -0.9 0.2
v 0.2 -0.9 0.2
v 0.3 -0.9 0.2
v -0.3 -0.9 -5.96046e-08
v -0.2 -0.9 -5.96046e-08
v 0.2 -0.9 -5.96046e-08
v 0.3 -0.9 -5.96046e-08
v -0.3 -0.9 -0.2
v 0.3 -0.9 -0.2
v -0.4 -0.8 0.3
v -0.3 -0.8 0.3
v 0.3 -0.8 0.3
v 0.4 -0.8 0.3
v -0.4 -0.8 0.2
v -0.3 -0.8 0.2
v 0.3 -0.8 0.2
v 0.4 -0.8 0.2
v -0.4 -0.8 -5.96046e-08
v -0.3 -0.8 -5.96046e-08
v 0.3 -0.8 -5.96046e-08
v 0.4 -0.8 -5.96046e-08
v -0.4 -0.8 -0.2
v -0.3 -0.8 -0.2
v 0.3 -0.8 -0.2
v 0.4 -0.8 -0.2
v -0.2 -0.5 0.2
v 0.2 -0.5 0.2
v -0.2 -0.5 -5.96046e-08
v 1.19209e-07 -0.5 -5.96046e-08
v 0.2 -0.5 -5.96046e-08
v -1.2 -0.1 0.2
v -0.4 -0.1 0.2
v 0.4 -0.1 0.2
v 1.2 -0.1 0.2
v -1.2 -0.1 -5.96046e-08
v -0.4 -0.1 -5.96046e-08
v 0.4 -0.1 -5.96046e-08
v 1.2 -0.1 -5.96046e-08
v -0.8 0.3 0.8
v -0.6 0.3 0.8
v 0.6 0.3 0.8
v 0.8 0.3 0.8
v -1 0.3 0.6
v -0.8 0.3 0.6
v -0.6 0.3 0.6
v 0.6 0.3 0.6
v 0.8 0.3 0.6
v 1 0.3 0.6
v -0.2 0.3 0.2
v 0.2 0.3 0.2
v -0.2 0.3 -0.1
v 0.2 0.3 -0.1
v -0.6 0.3 -0.4
v 0.6 0.3 -0.4
v -1 0.3 -0.6
v 1 0.3 -0.6
v -0.6 1.1 0.8
v -0.4 1.1 0.8
v -0.2 1.1 0.8
v 0.2 1.1 0.8
v 0.4 1.1 0.8
v 0.6 1.1 0.8
v -0.6 1.1 0.6
v -0.4 1.1 0.6
v -0.2 1.1 0.6
v 0.2 1.1 0.6
v 0.4 1.1 0.6
v 0.6 1.1 0.6
v -0.4 1.3 0.8
v -0.2 1.3 0.8
v 0.2 1.3 0.8
v 0.4 1.3 0.8
v -0.4 1.3 0.6
v -0.2 1.3 0.6
v 0.2 1.3 0.6
v 0.4 1.3 0.6
v -1 1.5 0.2
v -0.8 1.5 0.2
v 0.8 1.5 0.2
v 1 1.5 0.2
v -1 1.5 -5.96046e-08
v -0.8 1.5 -5.96046e-08
v 0.8 1.5 -5.96046e-08
v 1 1.5 -5.96046e-08
v -1 1.9 0.4
v -0.6 1.9 0.4
v 0.6 1.9 0.4
v 1 1.9 0.4
v -1 1.9 0.2
v -0.8 1.9 0.2
v -0.6 1.9 0.2
v 0.6 1.9 0.2
v 0.8 1.9 0.2
v 1 1.9 0.2
v -0.4 0.1 0.3
v 0.2 0.1 0.3
v 0.3 0.1 0.3
v 0.4 0.1 0.3
v -1.2 0.1 0.2
v -0.4 0.1 0.2
v -0.2 0.1 0.2
v 0.2 0.1 0.2
v 0.3 0.1 0.2
v 0.4 0.1 0.2
v 1.2 0.1 0.2
v -1.2 0.1 -5.96046e-08
v -0.4 0.1 -5.96046e-08
v 0.4 0.1 -5.96046e-08
v 1.2 0.1 -5.96046e-08
v -0.2 0.1 -0.1
v 0.2 0.1 -0.1
v -0.4 0.1 -0.2
v 0.4 0.1 -0.2
v -1 1.3 0.6
v -0.8 1.3 0.6
v 0.8 1.3 0.6
v 1 1.3 0.6
v -0.8 1.3 -0.4
v 0.8 1.3 -0.4
v -1 1.3 -0.6
v 1 1.3 -0.6
v -0.8 1.5 0.8
v 0.8 1.5 0.8
v -0.6 1.5 0.6
v 0.6 1.5 0.6
v -0.8 1.5 0.2
v -0.6 1.5 0.2
v 0.6 1.5 0.2
v 0.8 1.5 0.2
v -0.8 1.5 -0.2
v -0.6 1.5 -0.2
v 0.6 1.5 -0.2
v 0.8 1.5 -0.2
v -0.8 1.5 -0.4
v -0.6 1.5 -0.4
v 0.6 1.5 -0.4
v 0.8 1.5 -0.4
v -0.6 1.9 0.6
v 0.6 1.9 0.6
v -0.6 1.9 0.4
v -0.4 1.9 0.4
v 0.4 1.9 0.4
v 0.6 1.9 0.4
v -0.8 1.9 -5.96046e-08
v -0.6 1.9 -5.96046e-08
v -0.4 1.9 -5.96046e-08
v 0.4 1.9 -5.96046e-08
v 0.6 1.9 -5.96046e-08
v 0.8 1.9 -5.96046e-08
v -0.8 1.9 -0.2
v -0.6 1.9 -0.2
v 0.6 1.9 -0.2
v 0.8 1.9 -0.2
v -0.6 1.9 -0.4
v 0.6 1.9 -0.4
v -0.6 2.1 0.4
v -0.4 2.1 0.4
v 0.4 2.1 0.4
v 0.6 2.1 0.4
v -0.6 2.1 -5.96046e-08
v -0.4 2.1 -5.96046e-08
v 0.4 2.1 -5.96046e-08
v 0.6 2.1 -5.96046e-08
v -0.8 2.3 0.4
v -0.6 2.3 0.4
v 0.6 2.3 0.4
v 0.8 2.3 0.4
v -0.8 2.3 -5.96046e-08
v -0.6 2.3 -5.96046e-08
v 0.6 2.3 -5.96046e-08
v 0.8 2.3 -5.96046e-08
v -1 2.5 0.4
v -0.8 2.5 0.4
v 0.8 2.5 0.4
v 1 2.5 0.4
v -1 2.5 -5.96046e-08
v -0.8 2.5 -5.96046e-08
v 0.8 2.5 -5.96046e-08
v 1 2.5 -5.96046e-08

# faces
f 3/1/1 2/1/1 1/1/1
f 4/1/1 2/1/1 3/1/1
f 7/3/1 6/3/1 5/3/1
f 8/3/1 6/3/1 7/3/1
f 12/3/1 10/3/1 9/3/1
f 13/3/1 12/3/1 11/3/1
f 14/3/1 10/3/1 12/3/1
f 14/3/1 12/3/1 13/3/1
f 17/3/1 16/3/1 15/3/1
f 19/3/1 17/3/1 15/3/1
f 19/3/1 18/3/1 17/3/1
f 20/3/1 18/3/1 19/3/1
f 21/3/1 18/3/1 20/3/1
f 22/3/1 18/3/1 21/3/1
f 23/3/1 18/3/1 22/3/1
f 24/3/1 22/3/1 21/3/1
f 25/3/1 22/3/1 24/3/1
f 30/3/1 27/3/1 26/3/1
f 31/3/1 30/3/1 26/3/1
f 32/3/1 30/3/1 31/3/1
f 33/3/1 30/3/1 32/3/1
f 34/3/1 29/3/1 28/3/1
f 35/3/1 29/3/1 34/3/1
f 39/1/1 37/1/1 36/1/1
f 40/1/1 37/1/1 39/1/1
f 42/4/1 39/4/1 38/4/1
f 43/1/1 40/1/1 39/1/1
f 43/4/1 39/4/1 42/4/1
f 44/4/1 41/4/1 40/4/1
f 44/1/1 40/1/1 43/1/1
f 45/4/1 41/4/1 44/4/1
f 46/3/1 43/3/1 42/3/1
f 47/4/1 44/4/1 43/4/1
f 47/3/1 43/3/1 46/3/1
f 48/3/1 45/3/1 44/3/1
f 48/4/1 44/4/1 47/4/1
f 49/3/1 45/3/1 48/3/1
f 50/4/1 47/4/1 46/4/1
f 50/3/1 48/3/1 47/3/1
f 51/4/1 49/4/1 48/4/1
f 51/3/1 48/3/1 50/3/1
f 52/4/1 50/4/1 46/4/1
f 52/4/1 51/4/1 50/4/1
f 53/4/1 49/4/1 51/4/1
f 53/4/1 51/4/1 52/4/1
f 54/4/1 52/4/1 46/4/1
f 55/4/1 52/4/1 54/4/1
f 56/4/1 49/4/1 53/4/1
f 57/4/1 49/4/1 56/4/1
f 62/4/1 59/4/1 58/4/1
f 63/4/1 59/4/1 62/4/1
f 64/4/1 61/4/1 60/4/1
f 65/4/1 61/4/1 64/4/1
f 68/1/1 67/1/1 66/1/1
f 69/1/1 67/1/1 68/1/1
f 72/3/1 71/3/1 70/3/1
f 73/3/1 71/3/1 72/3/1
f 76/1/1 75/1/1 74/1/1
f 77/1/1 75/1/1 76/1/1
f 78/1/1 77/1/1 76/1/1
f 79/1/1 77/1/1 78/1/1
f 80/1/1 77/1/1 79/1/1
f 81/4/1 80/4/1 79/4/1
f 82/4/1 80/4/1 81/4/1
f 85/3/1 84/3/1 83/3/1
f 86/3/1 84/3/1 85/3/1
f 89/3/1 88/3/1 87/3/1
f 90/3/1 88/3/1 89/3/1
f 93/3/1 92/3/1 91/3/1
f 94/3/1 93/3/1 91/3/1
f 95/3/1 94/3/1 91/3/1
f 96/3/1 94/3/1 95/3/1
f 99/3/1 98/3/1 97/3/1
f 100/3/1 98/3/1 99/3/1
f 103/3/1 102/3/1 101/3/1
f 104/3/1 102/3/1 103/3/1
f 105/3/2 106/3/2 107/3/2
f 107/3/2 106/3/2 108/3/2
f 109/3/2 110/3/2 111/3/2
f 109/3/2 111/3/2 112/3/2
f 109/3/2 112/3/2 113/3/2
f 113/3/2 112/3/2 114/3/2
f 115/3/2 116/3/2 117/3/2
f 117/3/2 116/3/2 118/3/2
f 119/3/2 120/3/2 121/3/2
f 121/3/2 120/3/2 122/3/2
f 123/3/2 124/3/2 125/3/2
f 125/3/2 124/3/2 126/3/2
f 127/1/2 128/1/2 129/1/2
f 129/1/2 128/1/2 130/1/2
f 129/1/2 130/1/2 131/1/2
f 131/1/2 130/1/2 132/1/2
f 132/1/2 130/1/2 133/1/2
f 132/4/2 133/4/2 134/4/2
f 134/4/2 133/4/2 135/4/2
f 136/1/2 137/1/2 138/1/2
f 138/1/2 137/1/2 139/1/2
f 140/3/2 141/3/2 142/3/2
f 142/3/2 141/3/2 143/3/2
f 144/4/2 145/4/2 148/4/2
f 148/4/2 145/4/2 149/4/2
f 146/4/2 147/4/2 150/4/2
f 150/4/2 147/4/2 151/4/2
f 152/1/2 153/1/2 155/1/2
f 155/1/2 153/1/2 156/1/2
f 154/4/2 155/4/2 158/4/2
f 155/1/2 156/1/2 159/1/2
f 158/4/2 155/4/2 159/4/2
f 156/4/2 157/4/2 160/4/2
f 159/1/2 156/1/2 160/1/2
f 160/4/2 157/4/2 161/4/2
f 158/3/2 159/3/2 162/3/2
f 159/4/2 160/4/2 163/4/2
f 162/3/2 159/3/2 163/3/2
f 160/3/2 161/3/2 164/3/2
f 163/4/2 160/4/2 164/4/2
f 164/3/2 161/3/2 165/3/2
f 162/4/2 163/4/2 166/4/2
f 163/3/2 164/3/2 166/3/2
f 164/4/2 165/4/2 167/4/2
f 166/3/2 164/3/2 167/3/2
f 162/4/2 166/4/2 168/4/2
f 166/4/2 167/4/2 168/4/2
f 167/4/2 165/4/2 169/4/2
f 168/4/2 167/4/2 169/4/2
f 162/4/2 168/4/2 170/4/2
f 170/4/2 168/4/2 171/4/2
f 169/4/2 165/4/2 172/4/2
f 172/4/2 165/4/2 173/4/2
f 174/3/2 175/3/2 178/3/2
f 174/3/2 178/3/2 179/3/2
f 179/3/2 178/3/2 180/3/2
f 180/3/2 178/3/2 181/3/2
f 176/3/2 177/3/2 182/3/2
f 182/3/2 177/3/2 183/3/2
f 184/3/2 185/3/2 186/3/2
f 184/3/2 186/3/2 188/3/2
f 186/3/2 187/3/2 188/3/2
f 188/3/2 187/3/2 189/3/2
f 189/3/2 187/3/2 190/3/2
f 190/3/2 187/3/2 191/3/2
f 191/3/2 187/3/2 192/3/2
f 190/3/2 191/3/2 193/3/2
f 193/3/2 191/3/2 194/3/2
f 195/3/2 196/3/2 197/3/2
f 197/3/2 196/3/2 198/3/2
f 199/3/2 200/3/2 202/3/2
f 202/3/2 200/3/2 203/3/2
f 201/3/2 202/3/2 204/3/2
f 202/2/2 203/2/2 204/2/2
f 204/2/2 203/2/2 205/2/2
f 201/3/2 204/3/2 206/3/2
f 204/3/2 205/3/2 206/3/2
f 206/3/2 205/3/2 207/3/2
f 208/1/2 209/1/2 210/1/2
f 210/1/2 209/1/2 211/1/2
f 214/3/3 213/3/3 212/3/3
f 215/3/3 213/3/3 214/3/3
f 216/3/3 213/3/3 215/3/3
f 217/3/3 213/3/3 216/3/3
f 219/3/3 213/3/3 217/3/3
f 220/3/3 219/3/3 218/3/3
f 221/3/3 213/3/3 219/3/3
f 221/3/3 219/3/3 220/3/3
f 223/3/3 213/3/3 221/3/3
f 225/3/3 223/3/3 222/3/3
f 226/3/3 225/3/3 224/3/3
f 227/3/3 213/3/3 223/3/3
f 227/3/3 225/3/3 226/3/3
f 227/3/3 223/3/3 225/3/3
f 230/3/3 229/3/3 228/3/3
f 231/3/3 229/3/3 230/3/3
f 238/1/3 235/1/3 234/1/3
f 240/1/3 233/1/3 232/1/3
f 240/5/3 234/5/3 233/5/3
f 241/1/3 239/1/3 238/1/3
f 241/5/3 234/5/3 240/5/3
f 241/1/3 238/1/3 234/1/3
f 242/1/3 239/1/3 241/1/3
f 243/1/3 239/1/3 242/1/3
f 244/1/3 240/1/3 232/1/3
f 244/1/3 241/1/3 240/1/3
f 244/1/3 242/1/3 241/1/3
f 245/1/3 242/1/3 244/1/3
f 246/1/3 242/1/3 245/1/3
f 248/1/3 246/1/3 245/1/3
f 248/1/3 247/1/3 246/1/3
f 249/1/3 247/1/3 248/1/3
f 250/1/3 244/1/3 232/1/3
f 251/5/3 245/5/3 244/5/3
f 251/1/3 244/1/3 250/1/3
f 252/1/3 248/1/3 245/1/3
f 252/5/3 245/5/3 251/5/3
f 253/1/3 248/1/3 252/1/3
f 254/3/3 237/3/3 236/3/3
f 255/3/3 237/3/3 254/3/3
f 258/3/3 257/3/3 256/3/3
f 259/3/3 257/3/3 258/3/3
f 262/3/3 261/3/3 260/3/3
f 263/3/3 261/3/3 262/3/3
f 264/3/3 262/3/3 260/3/3
f 265/3/3 262/3/3 264/3/3
f 266/3/3 262/3/3 265/3/3
f 267/3/3 265/3/3 264/3/3
f 268/3/3 265/3/3 267/3/3
f 271/3/3 270/3/3 269/3/3
f 272/3/3 270/3/3 271/3/3
f 274/3/3 272/3/3 271/3/3
f 274/3/3 273/3/3 272/3/3
f 276/3/3 274/3/3 271/3/3
f 276/3/3 275/3/3 274/3/3
f 277/3/3 275/3/3 276/3/3
f 283/4/3 279/4/3 278/4/3
f 284/3/3 280/3/3 279/3/3
f 284/4/3 279/4/3 283/4/3
f 285/4/3 281/4/3 280/4/3
f 285/3/3 280/3/3 284/3/3
f 286/4/3 285/4/3 284/4/3
f 286/4/3 281/4/3 285/4/3
f 287/4/3 281/4/3 286/4/3
f 288/4/3 281/4/3 287/4/3
f 289/4/3 281/4/3 288/4/3
f 290/4/3 283/4/3 282/4/3
f 291/3/3 284/3/3 283/3/3
f 291/4/3 283/4/3 290/4/3
f 292/4/3 286/4/3 284/4/3
f 292/3/3 284/3/3 291/3/3
f 293/4/3 286/4/3 292/4/3
f 294/3/3 287/3/3 286/3/3
f 294/4/3 286/4/3 293/4/3
f 295/4/3 288/4/3 287/4/3
f 295/3/3 287/3/3 294/3/3
f 296/3/3 289/3/3 288/3/3
f 296/4/3 288/4/3 295/4/3
f 297/3/3 289/3/3 296/3/3
f 298/4/3 292/4/3 291/4/3
f 299/3/3 293/3/3 292/3/3
f 299/4/3 292/4/3 298/4/3
f 300/4/3 294/4/3 293/4/3
f 300/3/3 293/3/3 299/3/3
f 300/4/3 295/4/3 294/4/3
f 300/4/3 296/4/3 295/4/3
f 300/4/3 297/4/3 296/4/3
f 301/4/3 297/4/3 300/4/3
f 306/3/3 305/3/3 304/3/3
f 307/3/3 305/3/3 306/3/3
f 308/3/3 305/3/3 307/3/3
f 309/3/3 307/3/3 306/3/3
f 310/2/3 308/2/3 307/2/3
f 310/3/3 307/3/3 309/3/3
f 311/2/3 308/2/3 310/2/3
f 314/1/3 303/1/3 302/1/3
f 315/1/3 303/1/3 314/1/3
f 316/1/3 313/1/3 312/1/3
f 317/1/3 313/1/3 316/1/3
f 318/1/3 316/1/3 312/1/3
f 319/1/3 316/1/3 318/1/3
f 324/1/3 321/1/3 320/1/3
f 325/1/3 321/1/3 324/1/3
f 326/1/3 323/1/3 322/1/3
f 328/1/3 326/1/3 322/1/3
f 328/1/3 327/1/3 326/1/3
f 329/1/3 327/1/3 328/1/3
f 335/3/3 333/3/3 332/3/3
f 336/2/3 334/2/3 333/2/3
f 336/3/3 333/3/3 335/3/3
f 337/2/3 334/2/3 336/2/3
f 338/3/3 336/3/3 335/3/3
f 338/3/3 337/3/3 336/3/3
f 339/3/3 337/3/3 338/3/3
f 340/1/3 331/1/3 330/1/3
f 341/1/3 331/1/3 340/1/3
f 345/4/3 343/4/3 342/4/3
f 345/3/3 344/3/3 343/3/3
f 346/3/3 344/3/3 345/3/3
f 347/4/3 345/4/3 342/4/3
f 347/4/3 346/4/3 345/4/3
f 348/4/3 346/4/3 347/4/3
f 349/4/3 346/4/3 348/4/3
f 350/4/4 351/4/4 354/4/4
f 351/3/4 352/3/4 355/3/4
f 354/4/4 351/4/4 355/4/4
f 352/4/4 353/4/4 356/4/4
f 355/3/4 352/3/4 356/3/4
f 356/4/4 353/4/4 357/4/4
f 360/3/4 361/3/4 362/3/4
f 362/3/4 361/3/4 363/3/4
f 363/3/4 361/3/4 364/3/4
f 364/3/4 361/3/4 365/3/4
f 365/3/4 361/3/4 366/3/4
f 363/2/4 364/2/4 367/2/4
f 364/3/4 365/3/4 368/3/4
f 367/2/4 364/2/4 368/2/4
f 368/3/4 365/3/4 369/3/4
f 358/1/4 359/1/4 372/1/4
f 372/1/4 359/1/4 373/1/4
f 367/3/4 368/3/4 374/3/4
f 374/3/4 368/3/4 375/3/4
f 370/1/4 371/1/4 376/1/4
f 376/1/4 371/1/4 377/1/4
f 370/1/4 376/1/4 378/1/4
f 378/1/4 376/1/4 379/1/4
f 380/1/4 381/1/4 382/1/4
f 380/1/4 382/1/4 384/1/4
f 382/1/4 383/1/4 384/1/4
f 384/1/4 383/1/4 385/1/4
f 388/3/4 389/3/4 390/3/4
f 390/3/4 389/3/4 391/3/4
f 390/2/4 391/2/4 394/2/4
f 391/3/4 392/3/4 395/3/4
f 393/3/4 394/3/4 397/3/4
f 394/2/4 391/2/4 398/2/4
f 397/3/4 394/3/4 398/3/4
f 395/3/4 396/3/4 399/3/4
f 398/2/4 391/2/4 399/2/4
f 391/3/4 395/3/4 399/3/4
f 399/3/4 396/3/4 400/3/4
f 386/1/4 387/1/4 401/1/4
f 401/1/4 387/1/4 402/1/4
f 403/1/4 404/1/4 405/1/4
f 405/1/4 404/1/4 406/1/4
f 407/3/4 408/3/4 409/3/4
f 409/3/4 408/3/4 410/3/4
f 411/4/4 412/4/4 416/4/4
f 412/3/4 413/3/4 417/3/4
f 416/4/4 412/4/4 417/4/4
f 413/4/4 414/4/4 418/4/4
f 417/3/4 413/3/4 418/3/4
f 415/4/4 416/4/4 419/4/4
f 416/3/4 417/3/4 420/3/4
f 419/4/4 416/4/4 420/4/4
f 417/4/4 418/4/4 421/4/4
f 420/3/4 417/3/4 421/3/4
f 418/4/4 414/4/4 422/4/4
f 421/4/4 418/4/4 422/4/4
f 420/4/4 421/4/4 423/4/4
f 421/3/4 422/3/4 424/3/4
f 423/4/4 421/4/4 424/4/4
f 422/4/4 414/4/4 425/4/4
f 424/3/4 422/3/4 425/3/4
f 425/4/4 414/4/4 426/4/4
f 427/3/4 428/3/4 429/3/4
f 429/3/4 428/3/4 430/3/4
f 431/3/4 432/3/4 433/3/4
f 431/3/4 433/3/4 435/3/4
f 433/3/4 434/3/4 435/3/4
f 435/3/4 434/3/4 436/3/4
f 431/3/4 435/3/4 437/3/4
f 437/3/4 435/3/4 438/3/4
f 439/3/4 440/3/4 441/3/4
f 441/3/4 440/3/4 442/3/4
f 447/1/5 444/1/5 443/1/5
f 448/1/5 444/1/5 447/1/5
f 449/1/5 446/1/5 445/1/5
f 450/1/5 446/1/5 449/1/5
f 453/4/5 452/4/5 451/4/5
f 454/4/5 452/4/5 453/4/5
f 455/4/5 452/4/5 454/4/5
f 456/4/5 452/4/5 455/4/5
f 461/4/5 458/4/5 457/4/5
f 461/4/5 460/4/5 459/4/5
f 461/4/5 459/4/5 458/4/5
f 462/4/5 460/4/5 461/4/5
f 467/4/5 464/4/5 463/4/5
f 468/4/5 464/4/5 467/4/5
f 469/4/5 466/4/5 465/4/5
f 470/4/5 466/4/5 469/4/5
f 475/4/5 472/4/5 471/4/5
f 476/4/5 472/4/5 475/4/5
f 477/4/5 474/4/5 473/4/5
f 478/4/5 474/4/5 477/4/5
f 481/1/5 480/1/5 479/1/5
f 482/1/5 480/1/5 481/1/5
f 483/1/5 480/1/5 482/1/5
f 488/1/5 485/1/5 484/1/5
f 489/1/5 485/1/5 488/1/5
f 490/1/5 487/1/5 486/1/5
f 491/1/5 487/1/5 490/1/5
f 497/3/5 493/3/5 492/3/5
f 498/3/5 493/3/5 497/3/5
f 499/3/5 495/3/5 494/3/5
f 500/3/5 495/3/5 499/3/5
f 502/1/5 499/1/5 498/1/5
f 503/1/5 499/1/5 502/1/5
f 504/1/5 502/1/5 498/1/5
f 505/1/5 499/1/5 503/1/5
f 506/3/5 498/3/5 497/3/5
f 506/1/5 505/1/5 504/1/5
f 506/3/5 497/3/5 496/3/5
f 506/1/5 504/1/5 498/1/5
f 507/1/5 499/1/5 505/1/5
f 507/1/5 505/1/5 506/1/5
f 507/3/5 501/3/5 500/3/5
f 507/3/5 500/3/5 499/3/5
f 508/3/5 506/3/5 496/3/5
f 508/3/5 507/3/5 506/3/5
f 509/3/5 501/3/5 507/3/5
f 509/3/5 507/3/5 508/3/5
f 516/3/5 511/3/5 510/3/5
f 517/3/5 511/3/5 516/3/5
f 518/3/5 513/3/5 512/3/5
f 519/3/5 513/3/5 518/3/5
f 520/3/5 515/3/5 514/3/5
f 521/3/5 515/3/5 520/3/5
f 526/3/5 523/3/5 522/3/5
f 527/3/5 523/3/5 526/3/5
f 528/3/5 525/3/5 524/3/5
f 529/3/5 525/3/5 528/3/5
f 534/3/5 531/3/5 530/3/5
f 535/3/5 531/3/5 534/3/5
f 536/3/5 533/3/5 532/3/5
f 537/3/5 533/3/5 536/3/5
f 542/3/5 539/3/5 538/3/5
f 543/3/5 539/3/5 542/3/5
f 544/3/5 539/3/5 543/3/5
f 545/3/5 541/3/5 540/3/5
f 546/3/5 541/3/5 545/3/5
f 547/3/5 541/3/5 546/3/5
f 548/4/6 549/4/6 553/4/6
f 553/4/6 549/4/6 554/4/6
f 549/3/6 550/3/6 555/3/6
f 554/4/6 549/4/6 555/4/6
f 550/4/6 551/4/6 556/4/6
f 555/3/6 550/3/6 556/3/6
f 556/4/6 551/4/6 557/4/6
f 552/1/6 553/1/6 559/1/6
f 553/4/6 554/4/6 560/4/6
f 559/1/6 553/1/6 560/1/6
f 557/1/6 558/1/6 561/1/6
f 556/4/6 557/4/6 561/4/6
f 555/4/6 556/4/6 561/4/6
f 561/1/6 558/1/6 562/1/6
f 560/4/6 554/4/6 563/4/6
f 555/4/6 561/4/6 564/4/6
f 560/4/6 563/4/6 565/4/6
f 563/4/6 564/4/6 565/4/6
f 564/4/6 561/4/6 566/4/6
f 565/4/6 564/4/6 566/4/6
f 567/3/6 568/3/6 571/3/6
f 569/3/6 570/3/6 572/3/6
f 567/3/6 571/3/6 573/3/6
f 571/3/6 572/3/6 573/3/6
f 572/3/6 570/3/6 574/3/6
f 573/3/6 572/3/6 574/3/6
f 575/3/6 576/3/6 577/3/6
f 577/3/6 576/3/6 578/3/6
f 575/3/6 577/3/6 579/3/6
f 579/3/6 577/3/6 580/3/6
f 578/3/6 576/3/6 581/3/6
f 581/3/6 576/3/6 582/3/6
f 583/3/6 584/3/6 587/3/6
f 587/3/6 584/3/6 588/3/6
f 585/3/6 586/3/6 589/3/6
f 589/3/6 586/3/6 590/3/6
f 591/3/6 592/3/6 593/3/6
f 593/3/6 592/3/6 594/3/6
f 594/3/6 592/3/6 595/3/6
f 595/3/6 592/3/6 596/3/6
f 594/3/6 595/3/6 599/3/6
f 599/3/6 595/3/6 600/3/6
f 600/3/6 601/3/6 603/3/6
f 601/3/6 602/3/6 603/3/6
f 599/3/6 600/3/6 603/3/6
f 598/3/6 599/3/6 603/3/6
f 597/3/6 598/3/6 603/3/6
f 603/3/6 602/3/6 604/3/6
f 604/3/6 602/3/6 605/3/6
f 605/3/6 602/3/6 606/3/6
f 604/3/6 605/3/6 607/3/6
f 607/3/6 605/3/6 608/3/6
f 609/3/6 610/3/6 613/3/6
f 613/3/6 610/3/6 614/3/6
f 611/3/6 612/3/6 615/3/6
f 615/3/6 612/3/6 616/3/6
f 617/3/6 618/3/6 621/3/6
f 621/3/6 618/3/6 622/3/6
f 619/3/6 620/3/6 623/3/6
f 623/3/6 620/3/6 624/3/6
f 625/3/6 626/3/6 629/3/6
f 629/3/6 626/3/6 630/3/6
f 627/3/6 628/3/6 631/3/6
f 631/3/6 628/3/6 632/3/6
