# MagicaVoxel @ Ephtracy

# group
o 

# material
mtllib untitled3.vox.mtl
usemtl palette

# normals
vn -1 0 0
vn 1 0 0
vn 0 0 1
vn 0 0 -1
vn 0 -1 0
vn 0 1 0

# texcoords
vt 0.0292969 0.5
vt 0.958984 0.5
vt 0.962891 0.5
vt 0.966797 0.5
vt 0.990234 0.5

# verts
v -1.2 -0.1 0.2
v -1.2 -0.1 -5.96046e-08
v -1.2 0.1 0.2
v -1.2 0.1 -5.96046e-08
v -1 0.3 0.6
v -1 0.3 -0.6
v -1 1.3 0.6
v -1 1.3 -0.6
v -1 1.5 0.2
v -1 1.5 -5.96046e-08
v -1 1.9 0.4
v -1 1.9 0.2
v -1 2.5 0.4
v -1 2.5 -5.96046e-08
v -0.8 0.3 0.8
v -0.8 0.3 0.6
v -0.8 1.3 0.6
v -0.8 1.3 -0.4
v -0.8 1.5 0.8
v -0.8 1.5 0.2
v -0.8 1.5 -5.96046e-08
v -0.8 1.5 -0.2
v -0.8 1.5 -0.4
v -0.8 1.9 -5.96046e-08
v -0.8 1.9 -0.2
v -0.6 1.5 0.6
v -0.6 1.5 0.2
v -0.6 1.5 -0.2
v -0.6 1.5 -0.4
v -0.6 1.7 0.2
v -0.6 1.9 0.6
v -0.6 1.9 0.4
v -0.6 1.9 0.2
v -0.6 1.9 -0.2
v -0.6 1.9 -0.4
v -0.4 -1.5 0.2
v -0.4 -1.5 -5.96046e-08
v -0.4 -0.8 0.3
v -0.4 -0.8 0.2
v -0.4 -0.8 -5.96046e-08
v -0.4 -0.8 -0.2
v -0.4 -0.7 0.3
v -0.4 -0.7 0.2
v -0.4 -0.7 -5.96046e-08
v -0.4 -0.7 -0.2
v -0.4 -0.6 0.3
v -0.4 -0.6 0.2
v -0.4 -0.6 -5.96046e-08
v -0.4 -0.6 -0.2
v -0.4 -0.5 0.2
v -0.4 -0.5 -5.96046e-08
v -0.4 -0.1 0.2
v -0.4 -0.1 -5.96046e-08
v -0.4 0.1 0.3
v -0.4 0.1 0.2
v -0.4 0.1 -5.96046e-08
v -0.4 0.1 -0.2
v -0.3 -0.9 0.3
v -0.3 -0.9 0.2
v -0.3 -0.9 -5.96046e-08
v -0.3 -0.9 -0.2
v -0.3 -0.8 0.3
v -0.3 -0.8 0.2
v -0.3 -0.8 -5.96046e-08
v -0.3 -0.8 -0.2
v -0.2 0.1 0.2
v -0.2 0.1 -0.1
v -0.2 0.3 0.2
v -0.2 0.3 -0.1
v -0.2 1.1 0.8
v -0.2 1.1 0.6
v -0.2 1.3 0.8
v -0.2 1.3 0.6
v 0.2 -1.5 0.2
v 0.2 -1.5 -5.96046e-08
v 0.2 -0.9 0.2
v 0.2 -0.9 -5.96046e-08
v 0.2 -0.8 0.2
v 0.2 -0.7 0.2
v 0.2 -0.7 -5.96046e-08
v 0.2 -0.5 0.2
v 0.2 -0.5 -5.96046e-08
v 0.4 1.1 0.8
v 0.4 1.1 0.6
v 0.4 1.3 0.8
v 0.4 1.3 0.6
v 0.4 1.9 0.4
v 0.4 1.9 -5.96046e-08
v 0.4 2.1 0.4
v 0.4 2.1 -5.96046e-08
v 0.6 0.3 0.8
v 0.6 0.3 0.6
v 0.6 0.9 0.6
v 0.6 1 0.6
v 0.6 1.1 0.8
v 0.6 1.1 0.6
v 0.6 2.1 0.4
v 0.6 2.1 -5.96046e-08
v 0.6 2.3 0.4
v 0.6 2.3 -5.96046e-08
v 0.8 2.3 0.4
v 0.8 2.3 -5.96046e-08
v 0.8 2.5 0.4
v 0.8 2.5 -5.96046e-08
v -0.8 2.3 0.4
v -0.8 2.3 -5.96046e-08
v -0.8 2.5 0.4
v -0.8 2.5 -5.96046e-08
v -0.6 0.3 0.8
v -0.6 0.3 0.6
v -0.6 0.9 0.6
v -0.6 1 0.6
v -0.6 1.1 0.8
v -0.6 1.1 0.6
v -0.6 2.1 0.4
v -0.6 2.1 -5.96046e-08
v -0.6 2.3 0.4
v -0.6 2.3 -5.96046e-08
v -0.4 1.1 0.8
v -0.4 1.1 0.6
v -0.4 1.3 0.8
v -0.4 1.3 0.6
v -0.4 1.9 0.4
v -0.4 1.9 -5.96046e-08
v -0.4 2.1 0.4
v -0.4 2.1 -5.96046e-08
v -0.2 -1.5 0.2
v -0.2 -1.5 -5.96046e-08
v -0.2 -0.9 0.2
v -0.2 -0.9 -5.96046e-08
v -0.2 -0.8 0.2
v -0.2 -0.7 0.2
v -0.2 -0.7 -5.96046e-08
v -0.2 -0.5 0.2
v -0.2 -0.5 -5.96046e-08
v 0.2 0.1 0.2
v 0.2 0.1 -0.1
v 0.2 0.3 0.2
v 0.2 0.3 -0.1
v 0.2 1.1 0.8
v 0.2 1.1 0.6
v 0.2 1.3 0.8
v 0.2 1.3 0.6
v 0.3 -0.9 0.3
v 0.3 -0.9 0.2
v 0.3 -0.9 -5.96046e-08
v 0.3 -0.9 -0.2
v 0.3 -0.8 0.3
v 0.3 -0.8 0.2
v 0.3 -0.8 -5.96046e-08
v 0.3 -0.8 -0.2
v 0.4 -1.5 0.2
v 0.4 -1.5 -5.96046e-08
v 0.4 -0.8 0.3
v 0.4 -0.8 0.2
v 0.4 -0.8 -5.96046e-08
v 0.4 -0.8 -0.2
v 0.4 -0.7 0.3
v 0.4 -0.7 0.2
v 0.4 -0.7 -5.96046e-08
v 0.4 -0.7 -0.2
v 0.4 -0.6 0.3
v 0.4 -0.6 0.2
v 0.4 -0.6 -5.96046e-08
v 0.4 -0.6 -0.2
v 0.4 -0.5 0.2
v 0.4 -0.5 -5.96046e-08
v 0.4 -0.1 0.2
v 0.4 -0.1 -5.96046e-08
v 0.4 0.1 0.3
v 0.4 0.1 0.2
v 0.4 0.1 -5.96046e-08
v 0.4 0.1 -0.2
v 0.6 1.5 0.6
v 0.6 1.5 0.2
v 0.6 1.5 -0.2
v 0.6 1.5 -0.4
v 0.6 1.7 0.2
v 0.6 1.9 0.6
v 0.6 1.9 0.4
v 0.6 1.9 0.2
v 0.6 1.9 -0.2
v 0.6 1.9 -0.4
v 0.8 0.3 0.8
v 0.8 0.3 0.6
v 0.8 1.3 0.6
v 0.8 1.3 -0.4
v 0.8 1.5 0.8
v 0.8 1.5 0.2
v 0.8 1.5 -5.96046e-08
v 0.8 1.5 -0.2
v 0.8 1.5 -0.4
v 0.8 1.9 -5.96046e-08
v 0.8 1.9 -0.2
v 1 0.3 0.6
v 1 0.3 -0.6
v 1 1.3 0.6
v 1 1.3 -0.6
v 1 1.5 0.2
v 1 1.5 -5.96046e-08
v 1 1.9 0.4
v 1 1.9 0.2
v 1 1.9 -5.96046e-08
v 1 2.1 0.2
v 1 2.1 -5.96046e-08
v 1 2.5 0.4
v 1 2.5 -5.96046e-08
v 1.2 -0.1 0.2
v 1.2 -0.1 -5.96046e-08
v 1.2 0.1 0.2
v 1.2 0.1 -5.96046e-08
v -0.8 0.3 0.8
v -0.8 1.5 0.8
v -0.6 0.3 0.8
v -0.6 1.1 0.8
v -0.4 1.1 0.8
v -0.4 1.3 0.8
v -0.2 1.1 0.8
v -0.2 1.3 0.8
v 0.2 1.1 0.8
v 0.2 1.3 0.8
v 0.4 1.1 0.8
v 0.4 1.3 0.8
v 0.6 0.3 0.8
v 0.6 1.1 0.8
v 0.8 0.3 0.8
v 0.8 1.5 0.8
v -1 0.3 0.6
v -1 1.3 0.6
v -0.8 0.3 0.6
v -0.8 1.3 0.6
v -0.6 0.3 0.6
v -0.6 0.9 0.6
v -0.6 1 0.6
v -0.6 1.1 0.6
v -0.6 1.5 0.6
v -0.6 1.9 0.6
v -0.4 0.6 0.6
v -0.4 0.9 0.6
v -0.4 1.1 0.6
v -0.4 1.3 0.6
v -0.3 0.6 0.6
v -0.3 0.9 0.6
v -0.2 0.9 0.6
v -0.2 1 0.6
v -0.2 1.1 0.6
v -0.2 1.3 0.6
v 0.2 0.9 0.6
v 0.2 1 0.6
v 0.2 1.1 0.6
v 0.2 1.3 0.6
v 0.3 0.6 0.6
v 0.3 0.9 0.6
v 0.4 0.6 0.6
v 0.4 0.9 0.6
v 0.4 1.1 0.6
v 0.4 1.3 0.6
v 0.6 0.3 0.6
v 0.6 0.9 0.6
v 0.6 1 0.6
v 0.6 1.1 0.6
v 0.6 1.5 0.6
v 0.6 1.9 0.6
v 0.8 0.3 0.6
v 0.8 1.3 0.6
v 1 0.3 0.6
v 1 1.3 0.6
v -1 1.9 0.4
v -1 2.5 0.4
v -0.8 2.3 0.4
v -0.8 2.5 0.4
v -0.6 1.9 0.4
v -0.6 2.1 0.4
v -0.6 2.3 0.4
v -0.4 1.9 0.4
v -0.4 2.1 0.4
v 0.4 1.9 0.4
v 0.4 2.1 0.4
v 0.6 1.9 0.4
v 0.6 2.1 0.4
v 0.6 2.3 0.4
v 0.8 2.3 0.4
v 0.8 2.5 0.4
v 1 1.9 0.4
v 1 2.5 0.4
v -0.4 -0.8 0.3
v -0.4 -0.7 0.3
v -0.4 -0.6 0.3
v -0.4 0.1 0.3
v -0.3 -0.9 0.3
v -0.3 -0.8 0.3
v -0.3 -0.7 0.3
v -0.3 -0.6 0.3
v 0.2 -0.4 0.3
v 0.2 -0.2 0.3
v 0.2 0 0.3
v 0.2 0.1 0.3
v 0.3 -0.9 0.3
v 0.3 -0.8 0.3
v 0.3 -0.7 0.3
v 0.3 -0.6 0.3
v 0.3 -0.4 0.3
v 0.3 -0.2 0.3
v 0.3 0 0.3
v 0.3 0.1 0.3
v 0.4 -0.8 0.3
v 0.4 -0.7 0.3
v 0.4 -0.6 0.3
v 0.4 0.1 0.3
v -1.2 -0.1 0.2
v -1.2 0.1 0.2
v -1 1.5 0.2
v -1 1.9 0.2
v -0.8 1.5 0.2
v -0.8 1.7 0.2
v -0.8 1.9 0.2
v -0.6 1.5 0.2
v -0.6 1.7 0.2
v -0.6 1.9 0.2
v -0.4 -1.5 0.2
v -0.4 -0.8 0.2
v -0.4 -0.1 0.2
v -0.4 0.1 0.2
v -0.3 -0.9 0.2
v -0.3 -0.8 0.2
v -0.2 -1.5 0.2
v -0.2 -0.9 0.2
v -0.2 0.1 0.2
v -0.2 0.3 0.2
v 0.2 -1.5 0.2
v 0.2 -0.9 0.2
v 0.2 0.1 0.2
v 0.2 0.3 0.2
v 0.3 -0.9 0.2
v 0.3 -0.8 0.2
v 0.4 -1.5 0.2
v 0.4 -0.8 0.2
v 0.4 -0.1 0.2
v 0.4 0.1 0.2
v 0.6 1.5 0.2
v 0.6 1.7 0.2
v 0.6 1.9 0.2
v 0.8 1.5 0.2
v 0.8 1.7 0.2
v 0.8 1.9 0.2
v 1 1.5 0.2
v 1 1.9 0.2
v 1.2 -0.1 0.2
v 1.2 0.1 0.2
v -0.2 -0.9 -5.96046e-08
v -0.2 -0.7 -5.96046e-08
v -0.2 -0.5 -5.96046e-08
v 1.19209e-07 -0.7 -5.96046e-08
v 1.19209e-07 -0.5 -5.96046e-08
v 0.2 -0.9 -5.96046e-08
v 0.2 -0.7 -5.96046e-08
v 0.2 -0.5 -5.96046e-08
v -0.2 -0.9 0.2
v -0.2 -0.8 0.2
v -0.2 -0.7 0.2
v -0.2 -0.5 0.2
v 0.2 -0.9 0.2
v 0.2 -0.8 0.2
v 0.2 -0.7 0.2
v 0.2 -0.5 0.2
v -1.2 -0.1 -5.96046e-08
v -1.2 0.1 -5.96046e-08
v -1 1.5 -5.96046e-08
v -1 2.5 -5.96046e-08
v -0.8 1.5 -5.96046e-08
v -0.8 1.9 -5.96046e-08
v -0.8 2.1 -5.96046e-08
v -0.8 2.3 -5.96046e-08
v -0.8 2.5 -5.96046e-08
v -0.6 1.9 -5.96046e-08
v -0.6 2.1 -5.96046e-08
v -0.6 2.3 -5.96046e-08
v -0.4 -1.5 -5.96046e-08
v -0.4 -0.8 -5.96046e-08
v -0.4 -0.1 -5.96046e-08
v -0.4 0.1 -5.96046e-08
v -0.4 1.9 -5.96046e-08
v -0.4 2.1 -5.96046e-08
v -0.3 -0.9 -5.96046e-08
v -0.3 -0.8 -5.96046e-08
v -0.2 -1.5 -5.96046e-08
v -0.2 -0.9 -5.96046e-08
v 0.2 -1.5 -5.96046e-08
v 0.2 -0.9 -5.96046e-08
v 0.3 -0.9 -5.96046e-08
v 0.3 -0.8 -5.96046e-08
v 0.4 -1.5 -5.96046e-08
v 0.4 -0.8 -5.96046e-08
v 0.4 -0.1 -5.96046e-08
v 0.4 0.1 -5.96046e-08
v 0.4 1.9 -5.96046e-08
v 0.4 2.1 -5.96046e-08
v 0.6 1.9 -5.96046e-08
v 0.6 2.1 -5.96046e-08
v 0.6 2.3 -5.96046e-08
v 0.8 1.5 -5.96046e-08
v 0.8 1.9 -5.96046e-08
v 0.8 2.3 -5.96046e-08
v 0.8 2.5 -5.96046e-08
v 1 1.5 -5.96046e-08
v 1 1.9 -5.96046e-08
v 1 2.1 -5.96046e-08
v 1 2.5 -5.96046e-08
v 1.2 -0.1 -5.96046e-08
v 1.2 0.1 -5.96046e-08
v -0.2 0.1 -0.1
v -0.2 0.3 -0.1
v 0.2 0.1 -0.1
v 0.2 0.3 -0.1
v -0.8 1.5 -0.2
v -0.8 1.9 -0.2
v -0.6 1.5 -0.2
v -0.6 1.9 -0.2
v -0.4 -0.8 -0.2
v -0.4 -0.7 -0.2
v -0.4 -0.6 -0.2
v -0.4 0.1 -0.2
v -0.3 -0.9 -0.2
v -0.3 -0.8 -0.2
v -0.3 -0.7 -0.2
v -0.3 -0.6 -0.2
v 0.3 -0.9 -0.2
v 0.3 -0.8 -0.2
v 0.3 -0.7 -0.2
v 0.3 -0.6 -0.2
v 0.4 -0.8 -0.2
v 0.4 -0.7 -0.2
v 0.4 -0.6 -0.2
v 0.4 0.1 -0.2
v 0.6 1.5 -0.2
v 0.6 1.9 -0.2
v 0.8 1.5 -0.2
v 0.8 1.9 -0.2
v -0.8 1.3 -0.4
v -0.8 1.5 -0.4
v -0.6 1.5 -0.4
v -0.6 1.9 -0.4
v 0.6 1.5 -0.4
v 0.6 1.9 -0.4
v 0.8 1.3 -0.4
v 0.8 1.5 -0.4
v -1 0.3 -0.6
v -1 1.3 -0.6
v 1 0.3 -0.6
v 1 1.3 -0.6
v -0.4 -1.5 0.2
v -0.2 -1.5 0.2
v 0.2 -1.5 0.2
v 0.4 -1.5 0.2
v -0.4 -1.5 -5.96046e-08
v -0.2 -1.5 -5.96046e-08
v 0.2 -1.5 -5.96046e-08
v 0.4 -1.5 -5.96046e-08
v -0.3 -0.9 0.3
v 0.3 -0.9 0.3
v -0.3 -0.9 0.2
v -0.2 -0.9 0.2
v 0.2 -0.9 0.2
v 0.3 -0.9 0.2
v -0.3 -0.9 -5.96046e-08
v -0.2 -0.9 -5.96046e-08
v 0.2 -0.9 -5.96046e-08
v 0.3 -0.9 -5.96046e-08
v -0.3 -0.9 -0.2
v 0.3 -0.9 -0.2
v -0.4 -0.8 0.3
v -0.3 -0.8 0.3
v 0.3 -0.8 0.3
v 0.4 -0.8 0.3
v -0.4 -0.8 0.2
v -0.3 -0.8 0.2
v 0.3 -0.8 0.2
v 0.4 -0.8 0.2
v -0.4 -0.8 -5.96046e-08
v -0.3 -0.8 -5.96046e-08
v 0.3 -0.8 -5.96046e-08
v 0.4 -0.8 -5.96046e-08
v -0.4 -0.8 -0.2
v -0.3 -0.8 -0.2
v 0.3 -0.8 -0.2
v 0.4 -0.8 -0.2
v -0.2 -0.5 0.2
v 0.2 -0.5 0.2
v -0.2 -0.5 -5.96046e-08
v 1.19209e-07 -0.5 -5.96046e-08
v 0.2 -0.5 -5.96046e-08
v -1.2 -0.1 0.2
v -0.4 -0.1 0.2
v 0.4 -0.1 0.2
v 1.2 -0.1 0.2
v -1.2 -0.1 -5.96046e-08
v -0.4 -0.1 -5.96046e-08
v 0.4 -0.1 -5.96046e-08
v 1.2 -0.1 -5.96046e-08
v -0.8 0.3 0.8
v -0.6 0.3 0.8
v 0.6 0.3 0.8
v 0.8 0.3 0.8
v -1 0.3 0.6
v -0.8 0.3 0.6
v -0.6 0.3 0.6
v 0.6 0.3 0.6
v 0.8 0.3 0.6
v 1 0.3 0.6
v -0.2 0.3 0.2
v 0.2 0.3 0.2
v -0.2 0.3 -0.1
v 0.2 0.3 -0.1
v -0.6 0.3 -0.4
v 0.6 0.3 -0.4
v -1 0.3 -0.6
v 1 0.3 -0.6
v -0.6 1.1 0.8
v -0.4 1.1 0.8
v -0.2 1.1 0.8
v 0.2 1.1 0.8
v 0.4 1.1 0.8
v 0.6 1.1 0.8
v -0.6 1.1 0.6
v -0.4 1.1 0.6
v -0.2 1.1 0.6
v 0.2 1.1 0.6
v 0.4 1.1 0.6
v 0.6 1.1 0.6
v -0.4 1.3 0.8
v -0.2 1.3 0.8
v 0.2 1.3 0.8
v 0.4 1.3 0.8
v -0.4 1.3 0.6
v -0.2 1.3 0.6
v 0.2 1.3 0.6
v 0.4 1.3 0.6
v -1 1.5 0.2
v -0.8 1.5 0.2
v 0.8 1.5 0.2
v 1 1.5 0.2
v -1 1.5 -5.96046e-08
v -0.8 1.5 -5.96046e-08
v 0.8 1.5 -5.96046e-08
v 1 1.5 -5.96046e-08
v -1 1.9 0.4
v -0.6 1.9 0.4
v 0.6 1.9 0.4
v 1 1.9 0.4
v -1 1.9 0.2
v -0.8 1.9 0.2
v -0.6 1.9 0.2
v 0.6 1.9 0.2
v 0.8 1.9 0.2
v 1 1.9 0.2
v -0.4 0.1 0.3
v 0.2 0.1 0.3
v 0.3 0.1 0.3
v 0.4 0.1 0.3
v -1.2 0.1 0.2
v -0.4 0.1 0.2
v -0.2 0.1 0.2
v 0.2 0.1 0.2
v 0.3 0.1 0.2
v 0.4 0.1 0.2
v 1.2 0.1 0.2
v -1.2 0.1 -5.96046e-08
v -0.4 0.1 -5.96046e-08
v 0.4 0.1 -5.96046e-08
v 1.2 0.1 -5.96046e-08
v -0.2 0.1 -0.1
v 0.2 0.1 -0.1
v -0.4 0.1 -0.2
v 0.4 0.1 -0.2
v -1 1.3 0.6
v -0.8 1.3 0.6
v 0.8 1.3 0.6
v 1 1.3 0.6
v -0.8 1.3 -0.4
v 0.8 1.3 -0.4
v -1 1.3 -0.6
v 1 1.3 -0.6
v -0.8 1.5 0.8
v 0.8 1.5 0.8
v -0.6 1.5 0.6
v 0.6 1.5 0.6
v -0.8 1.5 0.2
v -0.6 1.5 0.2
v 0.6 1.5 0.2
v 0.8 1.5 0.2
v -0.8 1.5 -0.2
v -0.6 1.5 -0.2
v 0.6 1.5 -0.2
v 0.8 1.5 -0.2
v -0.8 1.5 -0.4
v -0.6 1.5 -0.4
v 0.6 1.5 -0.4
v 0.8 1.5 -0.4
v -0.6 1.9 0.6
v 0.6 1.9 0.6
v -0.6 1.9 0.4
v -0.4 1.9 0.4
v 0.4 1.9 0.4
v 0.6 1.9 0.4
v -0.8 1.9 -5.96046e-08
v -0.6 1.9 -5.96046e-08
v -0.4 1.9 -5.96046e-08
v 0.4 1.9 -5.96046e-08
v 0.6 1.9 -5.96046e-08
v 0.8 1.9 -5.96046e-08
v -0.8 1.9 -0.2
v -0.6 1.9 -0.2
v 0.6 1.9 -0.2
v 0.8 1.9 -0.2
v -0.6 1.9 -0.4
v 0.6 1.9 -0.4
v -0.6 2.1 0.4
v -0.4 2.1 0.4
v 0.4 2.1 0.4
v 0.6 2.1 0.4
v -0.6 2.1 -5.96046e-08
v -0.4 2.1 -5.96046e-08
v 0.4 2.1 -5.96046e-08
v 0.6 2.1 -5.96046e-08
v -0.8 2.3 0.4
v -0.6 2.3 0.4
v 0.6 2.3 0.4
v 0.8 2.3 0.4
v -0.8 2.3 -5.96046e-08
v -0.6 2.3 -5.96046e-08
v 0.6 2.3 -5.96046e-08
v 0.8 2.3 -5.96046e-08
v -1 2.5 0.4
v -0.8 2.5 0.4
v 0.8 2.5 0.4
v 1 2.5 0.4
v -1 2.5 -5.96046e-08
v -0.8 2.5 -5.96046e-08
v 0.8 2.5 -5.96046e-08
v 1 2.5 -5.96046e-08

# faces
f 3/1/1 2/1/1 1/1/1
f 4/1/1 2/1/1 3/1/1
f 7/3/1 6/3/1 5/3/1
f 8/3/1 6/3/1 7/3/1
f 12/3/1 10/3/1 9/3/1
f 13/3/1 12/3/1 11/3/1
f 14/3/1 10/3/1 12/3/1
f 14/3/1 12/3/1 13/3/1
f 17/3/1 16/3/1 15/3/1
f 19/3/1 17/3/1 15/3/1
f 19/3/1 18/3/1 17/3/1
f 20/3/1 18/3/1 19/3/1
f 21/3/1 18/3/1 20/3/1
f 22/3/1 18/3/1 21/3/1
f 23/3/1 18/3/1 22/3/1
f 24/3/1 22/3/1 21/3/1
f 25/3/1 22/3/1 24/3/1
f 30/3/1 27/3/1 26/3/1
f 31/3/1 30/3/1 26/3/1
f 32/3/1 30/3/1 31/3/1
f 33/3/1 30/3/1 32/3/1
f 34/3/1 29/3/1 28/3/1
f 35/3/1 29/3/1 34/3/1
f 39/1/1 37/1/1 36/1/1
f 40/1/1 37/1/1 39/1/1
f 42/4/1 39/4/1 38/4/1
f 43/1/1 40/1/1 39/1/1
f 43/4/1 39/4/1 42/4/1
f 44/4/1 41/4/1 40/4/1
f 44/1/1 40/1/1 43/1/1
f 45/4/1 41/4/1 44/4/1
f 46/3/1 43/3/1 42/3/1
f 47/4/1 44/4/1 43/4/1
f 47/3/1 43/3/1 46/3/1
f 48/3/1 45/3/1 44/3/1
f 48/4/1 44/4/1 47/4/1
f 49/3/1 45/3/1 48/3/1
f 50/4/1 47/4/1 46/4/1
f 50/3/1 48/3/1 47/3/1
f 51/4/1 49/4/1 48/4/1
f 51/3/1 48/3/1 50/3/1
f 52/4/1 50/4/1 46/4/1
f 52/4/1 51/4/1 50/4/1
f 53/4/1 49/4/1 51/4/1
f 53/4/1 51/4/1 52/4/1
f 54/4/1 52/4/1 46/4/1
f 55/4/1 52/4/1 54/4/1
f 56/4/1 49/4/1 53/4/1
f 57/4/1 49/4/1 56/4/1
f 62/4/1 59/4/1 58/4/1
f 63/4/1 59/4/1 62/4/1
f 64/4/1 61/4/1 60/4/1
f 65/4/1 61/4/1 64/4/1
f 68/1/1 67/1/1 66/1/1
f 69/1/1 67/1/1 68/1/1
f 72/3/1 71/3/1 70/3/1
f 73/3/1 71/3/1 72/3/1
f 76/1/1 75/1/1 74/1/1
f 77/1/1 75/1/1 76/1/1
f 78/1/1 77/1/1 76/1/1
f 79/1/1 77/1/1 78/1/1
f 80/1/1 77/1/1 79/1/1
f 81/4/1 80/4/1 79/4/1
f 82/4/1 80/4/1 81/4/1
f 85/3/1 84/3/1 83/3/1
f 86/3/1 84/3/1 85/3/1
f 89/3/1 88/3/1 87/3/1
f 90/3/1 88/3/1 89/3/1
f 93/3/1 92/3/1 91/3/1
f 94/3/1 93/3/1 91/3/1
f 95/3/1 94/3/1 91/3/1
f 96/3/1 94/3/1 95/3/1
f 99/3/1 98/3/1 97/3/1
f 100/3/1 98/3/1 99/3/1
f 103/3/1 102/3/1 101/3/1
f 104/3/1 102/3/1 103/3/1
f 105/3/2 106/3/2 107/3/2
f 107/3/2 106/3/2 108/3/2
f 109/3/2 110/3/2 111/3/2
f 109/3/2 111/3/2 112/3/2
f 109/3/2 112/3/2 113/3/2
f 113/3/2 112/3/2 114/3/2
f 115/3/2 116/3/2 117/3/2
f 117/3/2 116/3/2 118/3/2
f 119/3/2 120/3/2 121/3/2
f 121/3/2 120/3/2 122/3/2
f 123/3/2 124/3/2 125/3/2
f 125/3/2 124/3/2 126/3/2
f 127/1/2 128/1/2 129/1/2
f 129/1/2 128/1/2 130/1/2
f 129/1/2 130/1/2 131/1/2
f 131/1/2 130/1/2 132/1/2
f 132/1/2 130/1/2 133/1/2
f 132/4/2 133/4/2 134/4/2
f 134/4/2 133/4/2 135/4/2
f 136/1/2 137/1/2 138/1/2
f 138/1/2 137/1/2 139/1/2
f 140/3/2 141/3/2 142/3/2
f 142/3/2 141/3/2 143/3/2
f 144/4/2 145/4/2 148/4/2
f 148/4/2 145/4/2 149/4/2
f 146/4/2 147/4/2 150/4/2
f 150/4/2 147/4/2 151/4/2
f 152/1/2 153/1/2 155/1/2
f 155/1/2 153/1/2 156/1/2
f 154/4/2 155/4/2 158/4/2
f 155/1/2 156/1/2 159/1/2
f 158/4/2 155/4/2 159/4/2
f 156/4/2 157/4/2 160/4/2
f 159/1/2 156/1/2 160/1/2
f 160/4/2 157/4/2 161/4/2
f 158/3/2 159/3/2 162/3/2
f 159/4/2 160/4/2 163/4/2
f 162/3/2 159/3/2 163/3/2
f 160/3/2 161/3/2 164/3/2
f 163/4/2 160/4/2 164/4/2
f 164/3/2 161/3/2 165/3/2
f 162/4/2 163/4/2 166/4/2
f 163/3/2 164/3/2 166/3/2
f 164/4/2 165/4/2 167/4/2
f 166/3/2 164/3/2 167/3/2
f 162/4/2 166/4/2 168/4/2
f 166/4/2 167/4/2 168/4/2
f 167/4/2 165/4/2 169/4/2
f 168/4/2 167/4/2 169/4/2
f 162/4/2 168/4/2 170/4/2
f 170/4/2 168/4/2 171/4/2
f 169/4/2 165/4/2 172/4/2
f 172/4/2 165/4/2 173/4/2
f 174/3/2 175/3/2 178/3/2
f 174/3/2 178/3/2 179/3/2
f 179/3/2 178/3/2 180/3/2
f 180/3/2 178/3/2 181/3/2
f 176/3/2 177/3/2 182/3/2
f 182/3/2 177/3/2 183/3/2
f 184/3/2 185/3/2 186/3/2
f 184/3/2 186/3/2 188/3/2
f 186/3/2 187/3/2 188/3/2
f 188/3/2 187/3/2 189/3/2
f 189/3/2 187/3/2 190/3/2
f 190/3/2 187/3/2 191/3/2
f 191/3/2 187/3/2 192/3/2
f 190/3/2 191/3/2 193/3/2
f 193/3/2 191/3/2 194/3/2
f 195/3/2 196/3/2 197/3/2
f 197/3/2 196/3/2 198/3/2
f 199/3/2 200/3/2 202/3/2
f 202/3/2 200/3/2 203/3/2
f 201/3/2 202/3/2 204/3/2
f 202/2/2 203/2/2 204/2/2
f 204/2/2 203/2/2 205/2/2
f 201/3/2 204/3/2 206/3/2
f 204/3/2 205/3/2 206/3/2
f 206/3/2 205/3/2 207/3/2
f 208/1/2 209/1/2 210/1/2
f 210/1/2 209/1/2 211/1/2
f 214/3/3 213/3/3 212/3/3
f 215/3/3 213/3/3 214/3/3
f 216/3/3 213/3/3 215/3/3
f 217/3/3 213/3/3 216/3/3
f 219/3/3 213/3/3 217/3/3
f 220/3/3 219/3/3 218/3/3
f 221/3/3 213/3/3 219/3/3
f 221/3/3 219/3/3 220/3/3
f 223/3/3 213/3/3 221/3/3
f 225/3/3 223/3/3 222/3/3
f 226/3/3 225/3/3 224/3/3
f 227/3/3 213/3/3 223/3/3
f 227/3/3 225/3/3 226/3/3
f 227/3/3 223/3/3 225/3/3
f 230/3/3 229/3/3 228/3/3
f 231/3/3 229/3/3 230/3/3
f 238/1/3 233/1/3 232/1/3
f 239/5/3 234/5/3 233/5/3
f 239/1/3 233/1/3 238/1/3
f 240/1/3 235/1/3 234/1/3
f 242/1/3 238/1/3 232/1/3
f 242/5/3 239/5/3 238/5/3
f 243/5/3 234/5/3 239/5/3
f 243/5/3 239/5/3 242/5/3
f 244/1/3 243/1/3 242/1/3
f 244/5/3 234/5/3 243/5/3
f 245/1/3 241/1/3 240/1/3
f 245/5/3 234/5/3 244/5/3
f 245/1/3 240/1/3 234/1/3
f 246/1/3 241/1/3 245/1/3
f 247/1/3 241/1/3 246/1/3
f 248/1/3 244/1/3 242/1/3
f 248/1/3 245/1/3 244/1/3
f 248/1/3 246/1/3 245/1/3
f 249/1/3 246/1/3 248/1/3
f 250/1/3 246/1/3 249/1/3
f 252/1/3 242/1/3 232/1/3
f 252/1/3 248/1/3 242/1/3
f 253/5/3 249/5/3 248/5/3
f 253/1/3 248/1/3 252/1/3
f 254/1/3 252/1/3 232/1/3
f 254/5/3 253/5/3 252/5/3
f 255/5/3 249/5/3 253/5/3
f 255/5/3 253/5/3 254/5/3
f 256/1/3 251/1/3 250/1/3
f 256/1/3 250/1/3 249/1/3
f 257/1/3 251/1/3 256/1/3
f 258/1/3 255/1/3 254/1/3
f 258/1/3 254/1/3 232/1/3
f 259/5/3 249/5/3 255/5/3
f 259/1/3 255/1/3 258/1/3
f 260/1/3 256/1/3 249/1/3
f 260/5/3 249/5/3 259/5/3
f 261/1/3 256/1/3 260/1/3
f 262/3/3 237/3/3 236/3/3
f 263/3/3 237/3/3 262/3/3
f 266/3/3 265/3/3 264/3/3
f 267/3/3 265/3/3 266/3/3
f 270/3/3 269/3/3 268/3/3
f 271/3/3 269/3/3 270/3/3
f 272/3/3 270/3/3 268/3/3
f 273/3/3 270/3/3 272/3/3
f 274/3/3 270/3/3 273/3/3
f 275/3/3 273/3/3 272/3/3
f 276/3/3 273/3/3 275/3/3
f 279/3/3 278/3/3 277/3/3
f 280/3/3 278/3/3 279/3/3
f 282/3/3 280/3/3 279/3/3
f 282/3/3 281/3/3 280/3/3
f 284/3/3 282/3/3 279/3/3
f 284/3/3 283/3/3 282/3/3
f 285/3/3 283/3/3 284/3/3
f 291/4/3 287/4/3 286/4/3
f 292/3/3 288/3/3 287/3/3
f 292/4/3 287/4/3 291/4/3
f 293/4/3 289/4/3 288/4/3
f 293/3/3 288/3/3 292/3/3
f 294/4/3 293/4/3 292/4/3
f 294/4/3 289/4/3 293/4/3
f 295/4/3 289/4/3 294/4/3
f 296/4/3 289/4/3 295/4/3
f 297/4/3 289/4/3 296/4/3
f 298/4/3 291/4/3 290/4/3
f 299/3/3 292/3/3 291/3/3
f 299/4/3 291/4/3 298/4/3
f 300/4/3 294/4/3 292/4/3
f 300/3/3 292/3/3 299/3/3
f 301/4/3 294/4/3 300/4/3
f 302/3/3 295/3/3 294/3/3
f 302/4/3 294/4/3 301/4/3
f 303/4/3 296/4/3 295/4/3
f 303/3/3 295/3/3 302/3/3
f 304/3/3 297/3/3 296/3/3
f 304/4/3 296/4/3 303/4/3
f 305/3/3 297/3/3 304/3/3
f 306/4/3 300/4/3 299/4/3
f 307/3/3 301/3/3 300/3/3
f 307/4/3 300/4/3 306/4/3
f 308/4/3 302/4/3 301/4/3
f 308/3/3 301/3/3 307/3/3
f 308/4/3 303/4/3 302/4/3
f 308/4/3 304/4/3 303/4/3
f 308/4/3 305/4/3 304/4/3
f 309/4/3 305/4/3 308/4/3
f 314/3/3 313/3/3 312/3/3
f 315/3/3 313/3/3 314/3/3
f 316/3/3 313/3/3 315/3/3
f 317/3/3 315/3/3 314/3/3
f 318/2/3 316/2/3 315/2/3
f 318/3/3 315/3/3 317/3/3
f 319/2/3 316/2/3 318/2/3
f 322/1/3 311/1/3 310/1/3
f 323/1/3 311/1/3 322/1/3
f 324/1/3 321/1/3 320/1/3
f 325/1/3 321/1/3 324/1/3
f 326/1/3 324/1/3 320/1/3
f 327/1/3 324/1/3 326/1/3
f 332/1/3 329/1/3 328/1/3
f 333/1/3 329/1/3 332/1/3
f 334/1/3 331/1/3 330/1/3
f 336/1/3 334/1/3 330/1/3
f 336/1/3 335/1/3 334/1/3
f 337/1/3 335/1/3 336/1/3
f 343/3/3 341/3/3 340/3/3
f 344/2/3 342/2/3 341/2/3
f 344/3/3 341/3/3 343/3/3
f 345/2/3 342/2/3 344/2/3
f 346/3/3 344/3/3 343/3/3
f 346/3/3 345/3/3 344/3/3
f 347/3/3 345/3/3 346/3/3
f 348/1/3 339/1/3 338/1/3
f 349/1/3 339/1/3 348/1/3
f 353/4/3 351/4/3 350/4/3
f 353/3/3 352/3/3 351/3/3
f 354/3/3 352/3/3 353/3/3
f 355/4/3 353/4/3 350/4/3
f 355/4/3 354/4/3 353/4/3
f 356/4/3 354/4/3 355/4/3
f 357/4/3 354/4/3 356/4/3
f 358/4/4 359/4/4 362/4/4
f 359/3/4 360/3/4 363/3/4
f 362/4/4 359/4/4 363/4/4
f 360/4/4 361/4/4 364/4/4
f 363/3/4 360/3/4 364/3/4
f 364/4/4 361/4/4 365/4/4
f 368/3/4 369/3/4 370/3/4
f 370/3/4 369/3/4 371/3/4
f 371/3/4 369/3/4 372/3/4
f 372/3/4 369/3/4 373/3/4
f 373/3/4 369/3/4 374/3/4
f 371/2/4 372/2/4 375/2/4
f 372/3/4 373/3/4 376/3/4
f 375/2/4 372/2/4 376/2/4
f 376/3/4 373/3/4 377/3/4
f 366/1/4 367/1/4 380/1/4
f 380/1/4 367/1/4 381/1/4
f 375/3/4 376/3/4 382/3/4
f 382/3/4 376/3/4 383/3/4
f 378/1/4 379/1/4 384/1/4
f 384/1/4 379/1/4 385/1/4
f 378/1/4 384/1/4 386/1/4
f 386/1/4 384/1/4 387/1/4
f 388/1/4 389/1/4 390/1/4
f 388/1/4 390/1/4 392/1/4
f 390/1/4 391/1/4 392/1/4
f 392/1/4 391/1/4 393/1/4
f 396/3/4 397/3/4 398/3/4
f 398/3/4 397/3/4 399/3/4
f 398/2/4 399/2/4 402/2/4
f 399/3/4 400/3/4 403/3/4
f 401/3/4 402/3/4 405/3/4
f 402/2/4 399/2/4 406/2/4
f 405/3/4 402/3/4 406/3/4
f 403/3/4 404/3/4 407/3/4
f 406/2/4 399/2/4 407/2/4
f 399/3/4 403/3/4 407/3/4
f 407/3/4 404/3/4 408/3/4
f 394/1/4 395/1/4 409/1/4
f 409/1/4 395/1/4 410/1/4
f 411/1/4 412/1/4 413/1/4
f 413/1/4 412/1/4 414/1/4
f 415/3/4 416/3/4 417/3/4
f 417/3/4 416/3/4 418/3/4
f 419/4/4 420/4/4 424/4/4
f 420/3/4 421/3/4 425/3/4
f 424/4/4 420/4/4 425/4/4
f 421/4/4 422/4/4 426/4/4
f 425/3/4 421/3/4 426/3/4
f 423/4/4 424/4/4 427/4/4
f 424/3/4 425/3/4 428/3/4
f 427/4/4 424/4/4 428/4/4
f 425/4/4 426/4/4 429/4/4
f 428/3/4 425/3/4 429/3/4
f 426/4/4 422/4/4 430/4/4
f 429/4/4 426/4/4 430/4/4
f 428/4/4 429/4/4 431/4/4
f 429/3/4 430/3/4 432/3/4
f 431/4/4 429/4/4 432/4/4
f 430/4/4 422/4/4 433/4/4
f 432/3/4 430/3/4 433/3/4
f 433/4/4 422/4/4 434/4/4
f 435/3/4 436/3/4 437/3/4
f 437/3/4 436/3/4 438/3/4
f 439/3/4 440/3/4 441/3/4
f 439/3/4 441/3/4 443/3/4
f 441/3/4 442/3/4 443/3/4
f 443/3/4 442/3/4 444/3/4
f 439/3/4 443/3/4 445/3/4
f 445/3/4 443/3/4 446/3/4
f 447/3/4 448/3/4 449/3/4
f 449/3/4 448/3/4 450/3/4
f 455/1/5 452/1/5 451/1/5
f 456/1/5 452/1/5 455/1/5
f 457/1/5 454/1/5 453/1/5
f 458/1/5 454/1/5 457/1/5
f 461/4/5 460/4/5 459/4/5
f 462/4/5 460/4/5 461/4/5
f 463/4/5 460/4/5 462/4/5
f 464/4/5 460/4/5 463/4/5
f 469/4/5 466/4/5 465/4/5
f 469/4/5 468/4/5 467/4/5
f 469/4/5 467/4/5 466/4/5
f 470/4/5 468/4/5 469/4/5
f 475/4/5 472/4/5 471/4/5
f 476/4/5 472/4/5 475/4/5
f 477/4/5 474/4/5 473/4/5
f 478/4/5 474/4/5 477/4/5
f 483/4/5 480/4/5 479/4/5
f 484/4/5 480/4/5 483/4/5
f 485/4/5 482/4/5 481/4/5
f 486/4/5 482/4/5 485/4/5
f 489/1/5 488/1/5 487/1/5
f 490/1/5 488/1/5 489/1/5
f 491/1/5 488/1/5 490/1/5
f 496/1/5 493/1/5 492/1/5
f 497/1/5 493/1/5 496/1/5
f 498/1/5 495/1/5 494/1/5
f 499/1/5 495/1/5 498/1/5
f 505/3/5 501/3/5 500/3/5
f 506/3/5 501/3/5 505/3/5
f 507/3/5 503/3/5 502/3/5
f 508/3/5 503/3/5 507/3/5
f 510/1/5 507/1/5 506/1/5
f 511/1/5 507/1/5 510/1/5
f 512/1/5 510/1/5 506/1/5
f 513/1/5 507/1/5 511/1/5
f 514/3/5 506/3/5 505/3/5
f 514/1/5 513/1/5 512/1/5
f 514/3/5 505/3/5 504/3/5
f 514/1/5 512/1/5 506/1/5
f 515/1/5 507/1/5 513/1/5
f 515/1/5 513/1/5 514/1/5
f 515/3/5 509/3/5 508/3/5
f 515/3/5 508/3/5 507/3/5
f 516/3/5 514/3/5 504/3/5
f 516/3/5 515/3/5 514/3/5
f 517/3/5 509/3/5 515/3/5
f 517/3/5 515/3/5 516/3/5
f 524/3/5 519/3/5 518/3/5
f 525/3/5 519/3/5 524/3/5
f 526/3/5 521/3/5 520/3/5
f 527/3/5 521/3/5 526/3/5
f 528/3/5 523/3/5 522/3/5
f 529/3/5 523/3/5 528/3/5
f 534/3/5 531/3/5 530/3/5
f 535/3/5 531/3/5 534/3/5
f 536/3/5 533/3/5 532/3/5
f 537/3/5 533/3/5 536/3/5
f 542/3/5 539/3/5 538/3/5
f 543/3/5 539/3/5 542/3/5
f 544/3/5 541/3/5 540/3/5
f 545/3/5 541/3/5 544/3/5
f 550/3/5 547/3/5 546/3/5
f 551/3/5 547/3/5 550/3/5
f 552/3/5 547/3/5 551/3/5
f 553/3/5 549/3/5 548/3/5
f 554/3/5 549/3/5 553/3/5
f 555/3/5 549/3/5 554/3/5
f 556/4/6 557/4/6 561/4/6
f 561/4/6 557/4/6 562/4/6
f 557/3/6 558/3/6 563/3/6
f 562/4/6 557/4/6 563/4/6
f 558/4/6 559/4/6 564/4/6
f 563/3/6 558/3/6 564/3/6
f 564/4/6 559/4/6 565/4/6
f 560/1/6 561/1/6 567/1/6
f 561/4/6 562/4/6 568/4/6
f 567/1/6 561/1/6 568/1/6
f 565/1/6 566/1/6 569/1/6
f 564/4/6 565/4/6 569/4/6
f 563/4/6 564/4/6 569/4/6
f 569/1/6 566/1/6 570/1/6
f 568/4/6 562/4/6 571/4/6
f 563/4/6 569/4/6 572/4/6
f 568/4/6 571/4/6 573/4/6
f 571/4/6 572/4/6 573/4/6
f 572/4/6 569/4/6 574/4/6
f 573/4/6 572/4/6 574/4/6
f 575/3/6 576/3/6 579/3/6
f 577/3/6 578/3/6 580/3/6
f 575/3/6 579/3/6 581/3/6
f 579/3/6 580/3/6 581/3/6
f 580/3/6 578/3/6 582/3/6
f 581/3/6 580/3/6 582/3/6
f 583/3/6 584/3/6 585/3/6
f 585/3/6 584/3/6 586/3/6
f 583/3/6 585/3/6 587/3/6
f 587/3/6 585/3/6 588/3/6
f 586/3/6 584/3/6 589/3/6
f 589/3/6 584/3/6 590/3/6
f 591/3/6 592/3/6 595/3/6
f 595/3/6 592/3/6 596/3/6
f 593/3/6 594/3/6 597/3/6
f 597/3/6 594/3/6 598/3/6
f 599/3/6 600/3/6 601/3/6
f 601/3/6 600/3/6 602/3/6
f 602/3/6 600/3/6 603/3/6
f 603/3/6 600/3/6 604/3/6
f 602/3/6 603/3/6 607/3/6
f 607/3/6 603/3/6 608/3/6
f 608/3/6 609/3/6 611/3/6
f 609/3/6 610/3/6 611/3/6
f 607/3/6 608/3/6 611/3/6
f 606/3/6 607/3/6 611/3/6
f 605/3/6 606/3/6 611/3/6
f 611/3/6 610/3/6 612/3/6
f 612/3/6 610/3/6 613/3/6
f 613/3/6 610/3/6 614/3/6
f 612/3/6 613/3/6 615/3/6
f 615/3/6 613/3/6 616/3/6
f 617/3/6 618/3/6 621/3/6
f 621/3/6 618/3/6 622/3/6
f 619/3/6 620/3/6 623/3/6
f 623/3/6 620/3/6 624/3/6
f 625/3/6 626/3/6 629/3/6
f 629/3/6 626/3/6 630/3/6
f 627/3/6 628/3/6 631/3/6
f 631/3/6 628/3/6 632/3/6
f 633/3/6 634/3/6 637/3/6
f 637/3/6 634/3/6 638/3/6
f 635/3/6 636/3/6 639/3/6
f 639/3/6 636/3/6 640/3/6
